<?xml version="1.0" encoding="UTF-8" standalone="no"?>
<!-- Created with Inkscape (http://www.inkscape.org/) -->

<svg
   xmlns:dc="http://purl.org/dc/elements/1.1/"
   xmlns:cc="http://creativecommons.org/ns#"
   xmlns:rdf="http://www.w3.org/1999/02/22-rdf-syntax-ns#"
   xmlns:svg="http://www.w3.org/2000/svg"
   xmlns="http://www.w3.org/2000/svg"
   xmlns:sodipodi="http://sodipodi.sourceforge.net/DTD/sodipodi-0.dtd"
   xmlns:inkscape="http://www.inkscape.org/namespaces/inkscape"
   width="680"
   height="680"
   viewBox="0 0 680.00001 680.00001"
   id="svg2"
   version="1.1"
   inkscape:version="0.91 r13725"
   sodipodi:docname="icon_add_location.svg">
  <defs
     id="defs4" />
  <sodipodi:namedview
     id="base"
     pagecolor="#ffffff"
     bordercolor="#666666"
     borderopacity="1.0"
     inkscape:pageopacity="0.0"
     inkscape:pageshadow="2"
     inkscape:zoom="0.35"
     inkscape:cx="39.285716"
     inkscape:cy="588.57143"
     inkscape:document-units="px"
     inkscape:current-layer="layer1"
     showgrid="false"
     units="px"
     fit-margin-top="0"
     fit-margin-left="0"
     fit-margin-right="0"
     fit-margin-bottom="0"
     inkscape:window-width="1920"
     inkscape:window-height="1027"
     inkscape:window-x="2152"
     inkscape:window-y="-8"
     inkscape:window-maximized="1" />
  <metadata
     id="metadata7">
    <rdf:RDF>
      <cc:Work
         rdf:about="">
        <dc:format>image/svg+xml</dc:format>
        <dc:type
           rdf:resource="http://purl.org/dc/dcmitype/StillImage" />
        <dc:title></dc:title>
      </cc:Work>
    </rdf:RDF>
  </metadata>
  <g
     inkscape:label="Layer 1"
     inkscape:groupmode="layer"
     id="layer1"
     transform="translate(91.428574,-440.93356)">
    <path
       style="fill:#000000;stroke-width:40;stroke-linecap:round;stroke-linejoin:round;stroke-miterlimit:4;stroke-dasharray:none"
       d="M 311.62688,639.38537 C 213.59656,523.7276 136.27429,403.92603 106.59576,321.71429 95.915492,292.12914 95.766762,291.14139 95.840482,250.28572 c 0.06771,-37.52249 0.82666,-43.71835 8.049578,-65.71429 24.95447,-75.99375 78.80042,-132.977125 151.2809,-160.095546 54.10557,-20.2434885 124.48521,-18.8594676 178.3731,3.507719 91.50297,37.980051 152.02737,127.389467 152.02737,224.581767 0,54.16563 -26.75906,118.81717 -87.74866,212.00606 -44.41414,67.86249 -145.21584,198.77529 -157.00019,203.89866 -1.82615,0.79394 -14.96422,-12.29417 -29.1957,-29.08472 z m 67.87341,-260.1968 c 24.15971,-7.51934 39.20817,-17.03671 57.85654,-36.59131 25.71017,-26.95957 36.81066,-54.78196 36.75211,-92.11583 -0.0862,-54.9927 -27.58465,-99.24178 -75.946,-122.20848 -19.63577,-9.32498 -24.841,-10.51708 -51.00274,-11.68062 -34.12799,-1.51783 -54.0423,3.04737 -78.73163,18.04861 -40.96889,24.89271 -62.85714,65.16278 -62.85714,115.64478 0,62.37017 34.55645,109.85617 93.70771,128.76914 22.11263,7.07026 57.74317,7.12966 80.22115,0.13371 z"
       id="path3382"
       inkscape:connector-curvature="0"
       transform="translate(-91.428574,440.93356)" />
    <path
       style="fill:#000000;stroke-width:40;stroke-linecap:round;stroke-linejoin:round;stroke-miterlimit:4;stroke-dasharray:none"
       d="m 325.57143,291.71429 0,-27.14286 -27.14286,0 -27.14285,0 0,-14.28571 0,-14.28572 27.14285,0 27.14286,0 0,-27.14286 0,-27.14285 14.28571,0 14.28572,0 0,27.14285 0,27.14286 27.14286,0 27.14285,0 0,14.28572 0,14.28571 -27.14285,0 -27.14286,0 0,27.14286 0,27.14285 -14.28572,0 -14.28571,0 0,-27.14285 z"
       id="path3384"
       inkscape:connector-curvature="0"
       transform="translate(-91.428574,440.93356)" />
  </g>
</svg>
